# xmcd
#
# Track frame offsets: 
#        150
#        11275
#        28215
#        45765
#        62800
#        80025
#        93545
#        109855
#        130850
#        151790
#        158325
#        174250
#        191970
#
# Disc length: 2692 seconds
#
# Revision: 0
# Processed by: cddbd v1.5.2PL0 Copyright (c) Steve Scherf et al.
# Submitted via: ExactAudioCopyFreeDBPlugin 1.0
#
DISCID=970a820d
DTITLE=Various Artist - Soul Kitchen (The Original Motion Picture Soundtrack)
DTITLE=[Disc 2]
DYEAR=2009
DGENRE=Soul
TTITLE0=Burning Spear - Walking In Dub
TTITLE1=Silly Walks Movement Feat. Jan Delay - Soundhaudegen
TTITLE2=Locomondo - Frangosiriani
TTITLE3=Shantel - Manolis O Hasiklis
TTITLE4=Love Ravers - Mission Of Love
TTITLE5=Er France - Sing Song Girl
TTITLE6=Bad Boy Boogiez - Moon Shayn
TTITLE7=Steven Pfeffer - Arcilla
TTITLE8=Pavlos Sidiropoulos - To Blues Tou Paliokaravou
TTITLE9=Steve Baker - Steve's La Paloma
TTITLE10=Turtle Bay Country Club - Sisters Keepers Dub
TTITLE11=Broke But Busy - Gang and Gaebe
TTITLE12=Hans Albers - Das Letzte Hemd Hat Leider Keine Taschen
EXTD=
EXTT0=
EXTT1=
EXTT2=
EXTT3=
EXTT4=
EXTT5=
EXTT6=
EXTT7=
EXTT8=
EXTT9=
EXTT10=
EXTT11=
EXTT12=
PLAYORDER=
